<svg xmlns="http://www.w3.org/2000/svg" width="32" height="32" viewBox="0 0 32 32">
    <defs>
        <clipPath id="exl5gxpina">
            <path data-name="Rectangle 7384" transform="translate(.118 .118)" style="fill:none" d="M0 0h20v20H0z"/>
        </clipPath>
    </defs>
    <g data-name="Group 19179" transform="translate(-90 -1472)">
        <circle data-name="Ellipse 77" cx="16" cy="16" r="16" transform="translate(90 1472)" style="fill:#fff"/>
        <g data-name="Group 4536">
            <g data-name="Group 4434" style="clip-path:url(#exl5gxpina)" transform="translate(95.882 1477.882)">
                <path data-name="Path 10836" d="M1.64 18.321V2.179a.562.562 0 0 1 .538-.538H18.32a.562.562 0 0 1 .538.538v16.142a.562.562 0 0 1-.538.538H2.178a.562.562 0 0 1-.538-.538" transform="translate(-.132 -.132)" style="fill:#253858"/>
                <path data-name="Path 10837" d="M18.312 10.32v7.806c0 .155-.036.189-.189.189q-7.824-.007-15.65 0c-.155 0-.189-.036-.189-.189q.007-7.826 0-15.651c0-.155.036-.189.189-.189q7.826.006 15.65 0c.155 0 .19.037.189.19q-.008 3.921 0 7.843" transform="translate(-.183 -.183)" style="fill:#d5e8ff"/>
                <path data-name="Path 10838" d="M13.632 11.614h-2.671a.651.651 0 0 1-.623-.38.633.633 0 0 1 .059-.682.678.678 0 0 1 .6-.283h5.308a.651.651 0 0 1 .623.38.633.633 0 0 1-.059.682.679.679 0 0 1-.6.283h-2.637" transform="translate(-.823 -.823)" style="fill:#253858"/>
                <path data-name="Path 10839" d="M13.621 6.707h-2.6a.68.68 0 0 1-.727-.521.664.664 0 0 1 .581-.818c.051 0 .1-.006.151-.006h5.225a.671.671 0 0 1 .211 1.323 1.437 1.437 0 0 1-.267.021h-2.57" transform="translate(-.824 -.43)" style="fill:#253858"/>
                <path data-name="Path 10840" d="M13.634 16.522h-2.637a.67.67 0 0 1-.22-1.317 1.136 1.136 0 0 1 .249-.026h5.208a.688.688 0 0 1 .728.476.659.659 0 0 1-.64.866c-.767.01-1.534 0-2.3 0h-.386" transform="translate(-.824 -1.217)" style="fill:#253858"/>
                <path data-name="Path 10841" d="M6 7.574a.663.663 0 0 1-.482-.2c-.3-.3-.6-.59-.89-.892a.671.671 0 1 1 .943-.954 4.536 4.536 0 0 1 .333.332c.073.083.117.083.2 0q.647-.66 1.307-1.308a.671.671 0 1 1 .989.908c-.176.189-.362.366-.545.548-.44.441-.88.879-1.318 1.321A.726.726 0 0 1 6 7.574" transform="translate(-.354 -.346)" style="fill:#0065ff"/>
                <path data-name="Path 10842" d="M5.094 15.147a.657.657 0 0 1 .481.2c.116.113.235.225.343.345.066.074.1.064.17 0q.654-.664 1.317-1.319a.671.671 0 0 1 1.037.853 1.567 1.567 0 0 1-.124.135q-.884.886-1.769 1.77a.689.689 0 0 1-1.1 0c-.289-.289-.582-.573-.861-.872a.618.618 0 0 1-.11-.717.653.653 0 0 1 .612-.392" transform="translate(-.354 -1.134)" style="fill:#0065ff"/>
                <path data-name="Path 10843" d="M5.911 12.484a.641.641 0 0 1-.39-.2c-.3-.3-.607-.6-.9-.905a.67.67 0 0 1 .941-.953c.115.106.229.215.333.332.079.091.126.1.218 0 .43-.442.867-.876 1.306-1.309a.676.676 0 0 1 .9-.089.664.664 0 0 1 .07 1.015c-.339.35-.688.691-1.032 1.036-.281.281-.562.565-.844.844a.732.732 0 0 1-.6.225" transform="translate(-.354 -.74)" style="fill:#0065ff"/>
            </g>
        </g>
    </g>
</svg>
