<?xml version="1.0" encoding="utf-8"?>
<!-- Generator: Adobe Illustrator 26.5.0, SVG Export Plug-In . SVG Version: 6.00 Build 0)  -->
<svg version="1.1" id="Layer_1" xmlns="http://www.w3.org/2000/svg" xmlns:xlink="http://www.w3.org/1999/xlink" x="0px" y="0px"
	 viewBox="0 0 18 18" style="enable-background:new 0 0 18 18;" xml:space="preserve">
<style type="text/css">
	.st0{fill-rule:evenodd;clip-rule:evenodd;fill:#0065FF;}
</style>
<g id="filter" transform="translate(166 142)">
	<g id="Group_2829" transform="translate(1 4)">
		<path id="Path_2300" class="st0" d="M-150.99-142.39c1.26,0.32,2.02,1.61,1.7,2.87c-0.21,0.83-0.86,1.48-1.7,1.7v7.15
			c0,0.33-0.26,0.59-0.59,0.59c-0.33,0-0.59-0.26-0.59-0.59v-7.15c-1.26-0.32-2.02-1.61-1.7-2.87c0.21-0.83,0.86-1.48,1.7-1.7v-1.25
			c0-0.33,0.26-0.59,0.59-0.59c0.33,0,0.59,0.26,0.59,0.59V-142.39z M-158.65-131.93c-1.26-0.32-2.02-1.61-1.7-2.87
			c0.21-0.83,0.86-1.48,1.7-1.7v-7.14c0-0.33,0.26-0.59,0.59-0.59c0.33,0,0.59,0.26,0.59,0.59v7.15c1.26,0.32,2.02,1.61,1.7,2.87
			c-0.21,0.83-0.86,1.48-1.7,1.7v1.25c0,0.33-0.26,0.59-0.59,0.59c-0.33,0-0.59-0.26-0.59-0.59V-131.93z M-163.95-142.39
			c1.26,0.32,2.02,1.61,1.7,2.87c-0.21,0.83-0.86,1.48-1.7,1.7v7.15c0,0.33-0.26,0.59-0.59,0.59c-0.33,0-0.59-0.26-0.59-0.59v-7.14
			c-1.26-0.32-2.02-1.61-1.7-2.87c0.21-0.83,0.86-1.48,1.7-1.7v-1.25c0-0.33,0.26-0.59,0.59-0.59c0.33,0,0.59,0.26,0.59,0.59
			V-142.39z M-164.55-138.93c0.65,0,1.18-0.53,1.18-1.18c0-0.65-0.53-1.18-1.18-1.18c-0.65,0-1.18,0.53-1.18,1.18c0,0,0,0,0,0
			C-165.72-139.45-165.2-138.93-164.55-138.93z M-158.06-135.39c-0.65,0-1.18,0.53-1.18,1.18c0,0.65,0.53,1.18,1.18,1.18
			c0.65,0,1.18-0.52,1.18-1.17C-156.88-134.86-157.41-135.39-158.06-135.39C-158.06-135.39-158.06-135.39-158.06-135.39
			L-158.06-135.39z M-151.58-138.93c0.65,0,1.18-0.53,1.18-1.18c0-0.65-0.53-1.18-1.18-1.18s-1.18,0.53-1.18,1.18l0,0
			C-152.76-139.46-152.23-138.93-151.58-138.93C-151.58-138.93-151.58-138.93-151.58-138.93z"/>
	</g>
</g>
</svg>
