<svg data-name="Group 19198" xmlns="http://www.w3.org/2000/svg" width="9.542" height="16.621" viewBox="0 0 9.542 16.621">
    <defs>
        <clipPath id="wnv7ut6kea">
            <path data-name="Rectangle 7057" style="fill:none" d="M0 0h9.542v16.621H0z"/>
        </clipPath>
    </defs>
    <g data-name="Group 4168" style="clip-path:url(#wnv7ut6kea)">
        <path data-name="Path 10702" d="M7.887 244.036H1.98a.892.892 0 0 1-.812-.987v-.957a.391.391 0 0 0-.13-.315 3.882 3.882 0 0 1-.783-1.066 2.05 2.05 0 0 1-.24-.964.082.082 0 0 0-.016-.06v-.779c.032-.19.006-.388.053-.575a1.272 1.272 0 0 1 .616-.885.163.163 0 0 1 .1.014.341.341 0 0 0 .389-.067c.482-.358.958-.723 1.434-1.089.412-.317.827-.628 1.258-.917a2.055 2.055 0 0 1 .7-.321.566.566 0 0 1 .739.568 1.073 1.073 0 0 1-.163.617 10.238 10.238 0 0 1-.959 1.366 11.787 11.787 0 0 1-1.689 1.744c-.106.086-.224.151-.335.228-.148.1-.188.22-.121.342s.189.145.356.064a3.4 3.4 0 0 0 .773-.585 11.732 11.732 0 0 0 .964-.983.219.219 0 0 1 .329-.059 1.3 1.3 0 0 0 1.032.124c.158-.048.211-.01.288.178a1.327 1.327 0 0 0 .643.722 1.3 1.3 0 0 0 1.729-.515 2.655 2.655 0 0 0 .194-.445c.273-.8.546-1.6.83-2.391.023-.065.016-.19.154-.136a4.425 4.425 0 0 1 .179 1.029c.023.278.02.557.049.835v1.266a3.245 3.245 0 0 0-.016.5 4.37 4.37 0 0 1-.095 1.045 3.449 3.449 0 0 1-.605 1.12.631.631 0 0 0-.128.389 9.243 9.243 0 0 1-.025 1.1.85.85 0 0 1-.785.841" transform="translate(0 -227.414)" style="fill:#fcc693"/>
        <path data-name="Path 10703" d="M27.138 0a1.268 1.268 0 0 1 .642.349 1.183 1.183 0 0 1 .3.831v3.431a.085.085 0 0 1-.033.055c-.207.107-.226.294-.225.5v2.661a.516.516 0 0 1-.234.465c-.491.354-.963.733-1.45 1.091-.074.054-.145.161-.266.084a.347.347 0 0 1-.038-.22V1.252a1.3 1.3 0 0 1 .4-1.022 1.077 1.077 0 0 1 .612-.23z" transform="translate(-24.996)" style="fill:#fcc693"/>
        <path data-name="Path 10704" d="M292.719 358.373h-.028a1.56 1.56 0 0 1 .028-.524z" transform="translate(-283.177 -346.232)" style="fill:#fddec0"/>
        <path data-name="Path 10705" d="M19.1 147.411c-.1-.336-.095-.338.233-.583.584-.443 1.167-.888 1.755-1.327a.255.255 0 0 0 .1-.239v-2.856c0-.283.07-.375.323-.447a.609.609 0 0 1 .228.1c.138.041.13.157.131.264v2.38c0 .1.023.144.128.077a2.768 2.768 0 0 1 .841-.367.227.227 0 0 0 .171-.174c.1-.308.219-.609.318-.917a1.876 1.876 0 0 1 .2-.439.262.262 0 0 1 .187-.141 1.4 1.4 0 0 1 2.248.284 1.107 1.107 0 0 1 .148.476c.007.123.05.136.158.117a1.359 1.359 0 0 1 1.477.7 1.2 1.2 0 0 1 .109 1.044c-.048.155-.1.307-.154.461l-.92 2.664a1.554 1.554 0 0 1-.649.863 1.4 1.4 0 0 1-1.748-.294 1.514 1.514 0 0 1-.277-.489c-.032-.105-.085-.116-.181-.083a1.21 1.21 0 0 1-1.072-.123c-.137-.084-.206-.033-.295.069a8.769 8.769 0 0 1-1.579 1.477 1.092 1.092 0 0 1-.214.115.285.285 0 0 1-.38-.11.29.29 0 0 1 .1-.41 4.6 4.6 0 0 0 .608-.454c.3-.266.573-.555.847-.846a13.645 13.645 0 0 0 1.075-1.314 6.452 6.452 0 0 0 .553-.876.848.848 0 0 0 .064-.553.48.48 0 0 0-.639-.4 2.645 2.645 0 0 0-.918.467c-.841.6-1.641 1.246-2.472 1.856-.215.158-.284.164-.511.028" transform="translate(-18.429 -137.35)" style="fill:#f8a571"/>
        <path data-name="Path 10706" d="M103.909 133.916a1.794 1.794 0 0 0-.329.607c-.109.328-.228.652-.335.98a.2.2 0 0 1-.169.145 2.745 2.745 0 0 0-.965.438c-.029.02-.052.067-.1.038s-.022-.069-.022-.106v-2.539a.338.338 0 0 0-.066-.242 1.133 1.133 0 0 1 .9-.394 1.108 1.108 0 0 1 1.042.958c0 .042-.007.088.035.119" transform="translate(-98.618 -128.525)" style="fill:#fcc693"/>
        <path data-name="Path 10707" d="M194.379 211.44a.871.871 0 0 1-.065.371c-.345.995-.693 1.988-1.035 2.984a.809.809 0 0 1-.6.576.69.69 0 0 1-.747-.261.7.7 0 0 1-.125-.758c.28-.622.464-1.278.7-1.917.16-.441.326-.882.462-1.331a.742.742 0 0 1 .846-.428.754.754 0 0 1 .567.764" transform="translate(-185.518 -203.812)" style="fill:#fcc693"/>
        <path data-name="Path 10708" d="M147.013 171.867a.733.733 0 0 1 .739.973c-.447 1.188-.849 2.392-1.268 3.59a.738.738 0 0 1-.938.4c-.129-.044-.144-.106-.059-.212.229-.287.438-.588.639-.9a3.292 3.292 0 0 0 .342-.641 1.392 1.392 0 0 0-.126-1.258 1.741 1.741 0 0 0-.309-.413.185.185 0 0 1-.044-.221c.1-.275.184-.554.288-.826a.7.7 0 0 1 .736-.5" transform="translate(-140.712 -166.285)" style="fill:#fcc693"/>
    </g>
</svg>
