<?xml version="1.0" encoding="utf-8"?>
<!-- Generator: Adobe Illustrator 26.5.0, SVG Export Plug-In . SVG Version: 6.00 Build 0)  -->
<svg version="1.1" id="Layer_1" xmlns="http://www.w3.org/2000/svg" xmlns:xlink="http://www.w3.org/1999/xlink" x="0px" y="0px"
	 viewBox="0 0 32 32" style="enable-background:new 0 0 32 32;" xml:space="preserve">
<style type="text/css">
	.st0{fill:#FFFFFF;}
	.st1{clip-path:url(#SVGID_00000011741401188924063620000012047857549173895092_);}
	.st2{fill:#7BB5F4;}
	.st3{fill:#253858;}
	.st4{fill:#D5E8FF;}
	.st5{fill:#0065FF;}
	.st6{fill:#FEFEFE;}
</style>
<g>
	<path class="st0" d="M16,32L16,32C7.2,32,0,24.8,0,16l0,0C0,7.2,7.2,0,16,0h0c8.8,0,16,7.2,16,16v0C32,24.8,24.8,32,16,32z"/>
	<g>
		<defs>
			<rect id="SVGID_1_" x="6" y="5.35" width="20" height="20"/>
		</defs>
		<clipPath id="SVGID_00000095320628109549497620000014389312147454552493_">
			<use xlink:href="#SVGID_1_"  style="overflow:visible;"/>
		</clipPath>
		<g style="clip-path:url(#SVGID_00000095320628109549497620000014389312147454552493_);">
			<path class="st2" d="M25.85,15.13h0.04v0.42h-0.04C25.75,15.43,25.75,15.25,25.85,15.13"/>
			<path class="st3" d="M25.85,15.13v0.43c-0.08,0.45-0.3,0.87-0.63,1.18c-0.21,0.22-0.43,0.42-0.66,0.62
				c-0.43,0.36-0.61,0.93-0.47,1.47c0.08,0.38,0.12,0.77,0.18,1.16c0.16,0.81-0.36,1.6-1.16,1.78c-0.46,0.11-0.93,0.19-1.4,0.24
				c-0.62,0.08-1.13,0.52-1.3,1.12c-0.12,0.36-0.29,0.69-0.53,0.99c-0.41,0.61-1.18,0.85-1.87,0.6c-0.25-0.08-0.5-0.19-0.73-0.32
				c-0.15-0.09-0.3-0.18-0.45-0.26c-0.51-0.33-1.17-0.33-1.68,0c-0.34,0.21-0.69,0.39-1.06,0.54c-0.18,0.07-0.37,0.12-0.56,0.15
				c-0.5,0.08-0.99-0.14-1.27-0.56c-0.16-0.22-0.31-0.45-0.44-0.69c-0.15-0.24-0.29-0.49-0.42-0.75c-0.23-0.52-0.75-0.86-1.32-0.86
				c-0.34-0.03-0.68-0.09-1.02-0.17c-0.87-0.12-1.48-0.91-1.36-1.78c0.01-0.06,0.02-0.12,0.03-0.18c0.07-0.47,0.17-0.93,0.2-1.41
				c0.04-0.32-0.07-0.63-0.3-0.86c-0.31-0.31-0.62-0.63-0.92-0.94c-0.29-0.27-0.5-0.63-0.59-1.02c-0.08-0.45,0.05-0.91,0.34-1.26
				c0.25-0.32,0.53-0.62,0.84-0.88c0.56-0.43,0.79-1.17,0.56-1.83c-0.07-0.3-0.11-0.6-0.14-0.91C7.56,9.9,8.11,9.08,8.95,8.91
				C8.99,8.9,9.03,8.9,9.08,8.89c0.48-0.1,0.97-0.17,1.45-0.26c0.34-0.05,0.63-0.26,0.78-0.56c0.15-0.3,0.31-0.59,0.46-0.89
				c0.11-0.22,0.23-0.43,0.36-0.64c0.39-0.62,1.17-0.87,1.84-0.58c0.4,0.15,0.78,0.34,1.14,0.56c0.53,0.35,1.22,0.35,1.75,0.01
				c0.44-0.29,0.92-0.5,1.42-0.63c0.55-0.13,1.12,0.08,1.45,0.52c0.18,0.22,0.32,0.45,0.44,0.71c0.12,0.24,0.26,0.48,0.36,0.73
				c0.21,0.51,0.7,0.85,1.25,0.86c0.45,0.04,0.9,0.12,1.33,0.24c0.78,0.2,1.27,0.97,1.13,1.76c-0.05,0.36-0.1,0.72-0.16,1.08
				c-0.17,0.67,0.09,1.37,0.67,1.76c0.5,0.33,0.87,0.83,1.04,1.4C25.83,15.02,25.84,15.08,25.85,15.13"/>
			<path class="st4" d="M8.77,19.97c0.02-0.46,0.08-0.91,0.18-1.36c0.11-0.68-0.13-1.37-0.63-1.85c-0.26-0.28-0.58-0.49-0.84-0.79
				C6.96,15.4,7.15,15,7.62,14.56c0.31-0.27,0.6-0.56,0.87-0.88c0.47-0.59,0.62-1.36,0.42-2.08c-0.13-0.42-0.18-0.86-0.15-1.3
				c0.01-0.12,0.09-0.22,0.2-0.27c0.43-0.2,0.89-0.32,1.36-0.36c0.61-0.01,1.2-0.28,1.61-0.73c0.22-0.29,0.41-0.62,0.55-0.96
				c0.12-0.3,0.28-0.59,0.46-0.87c0.11-0.22,0.38-0.31,0.61-0.2c0.46,0.16,0.9,0.35,1.32,0.58c0.81,0.46,1.81,0.41,2.57-0.13
				c0.29-0.19,0.61-0.35,0.94-0.46c0.23-0.12,0.51-0.03,0.64,0.2c0.16,0.21,0.3,0.44,0.41,0.68c0.13,0.26,0.25,0.51,0.39,0.77
				c0.29,0.59,0.87,1,1.52,1.08c0.44,0.05,0.87,0.12,1.29,0.21c0.63,0.18,0.71,0.27,0.64,1c-0.05,0.47-0.23,0.92-0.24,1.4
				c-0.01,0.61,0.23,1.19,0.65,1.63c0.3,0.33,0.65,0.59,0.94,0.93c0.28,0.27,0.3,0.72,0.05,1.01c-0.18,0.25-0.4,0.47-0.65,0.65
				c-0.78,0.56-1.14,1.55-0.92,2.48c0.06,0.31,0.12,0.61,0.18,0.92c0.11,0.41-0.13,0.84-0.54,0.95c-0.03,0.01-0.06,0.01-0.08,0.02
				c-0.39,0.08-0.78,0.13-1.18,0.16c-0.73,0.07-1.37,0.52-1.69,1.19c-0.2,0.47-0.45,0.91-0.76,1.32c-0.27,0.33-0.32,0.35-0.73,0.22
				c-0.34-0.13-0.67-0.28-0.98-0.47c-0.42-0.27-0.9-0.42-1.4-0.43c-0.3,0.02-0.59,0.1-0.86,0.23c-0.43,0.19-0.83,0.47-1.27,0.62
				c-0.51,0.18-0.62,0.14-0.93-0.31c-0.28-0.42-0.45-0.9-0.7-1.33c-0.31-0.56-0.87-0.93-1.5-1c-0.42-0.04-0.84-0.11-1.25-0.21
				C8.78,20.66,8.79,20.64,8.77,19.97"/>
			<path class="st5" d="M11.15,16.22v-2.71c0-0.45,0.19-0.65,0.65-0.65h2.22c0.24-0.04,0.48,0.07,0.61,0.28
				c0.05,0.09,0.1,0.04,0.15,0.01c0.52-0.33,0.99-0.73,1.41-1.18c0.44-0.47,0.82-1.01,1.13-1.58c0.31-0.59,1.04-0.81,1.62-0.5
				c0.07,0.04,0.13,0.08,0.19,0.12c0.45,0.31,0.67,0.86,0.55,1.4c-0.05,0.46-0.18,0.9-0.4,1.31c-0.06,0.11-0.03,0.14,0.09,0.14
				c0.26,0.01,0.51,0,0.77,0.02c0.86,0.1,1.48,0.87,1.38,1.73c-0.01,0.06-0.02,0.13-0.03,0.19c-0.25,1.11-0.49,2.22-0.75,3.33
				c-0.16,0.68-0.77,1.15-1.46,1.15c-1.51,0-3.02-0.18-4.49-0.55c-0.13-0.05-0.28,0-0.33,0.13c0,0,0,0,0,0
				c-0.28,0.45-0.77,0.72-1.3,0.7c-0.47,0.01-0.93,0-1.4,0c-0.29,0.04-0.56-0.17-0.6-0.46c-0.01-0.05-0.01-0.1,0-0.15L11.15,16.22"
				/>
			<path class="st6" d="M14.71,16.04c0-0.49,0-0.98,0-1.47c-0.01-0.12,0.05-0.23,0.16-0.28c1.38-0.78,2.51-1.94,3.27-3.33
				c0.06-0.12,0.12-0.23,0.28-0.17c0.15,0.05,0.27,0.14,0.26,0.31c-0.01,0.45-0.12,0.89-0.34,1.28c-0.11,0.19-0.27,0.34-0.45,0.45
				c-0.25,0.12-0.37,0.41-0.29,0.67c0.07,0.26,0.25,0.38,0.57,0.38h1.76c0.31-0.04,0.59,0.18,0.63,0.49c0.01,0.08,0,0.17-0.03,0.25
				c-0.23,1.06-0.47,2.12-0.71,3.19c-0.04,0.29-0.31,0.5-0.6,0.47c-1.47-0.01-2.94-0.19-4.36-0.55c-0.09-0.01-0.15-0.08-0.14-0.17
				c0,0,0-0.01,0-0.01C14.72,17.05,14.71,16.55,14.71,16.04"/>
			<path class="st6" d="M12.14,16.22c0-0.71,0.01-1.42,0-2.14c0-0.17,0.05-0.21,0.21-0.2c0.39,0.01,0.78,0.01,1.17,0
				c0.13,0,0.18,0.02,0.18,0.17c-0.01,1.31,0,2.63,0,3.94c0.03,0.3-0.18,0.56-0.48,0.59c-0.04,0-0.08,0-0.12,0
				c-0.26,0-0.52-0.01-0.77,0c-0.15,0.01-0.19-0.04-0.19-0.18C12.15,17.67,12.14,16.94,12.14,16.22"/>
		</g>
	</g>
</g>
</svg>
