<svg xmlns="http://www.w3.org/2000/svg" width="20" height="20" viewBox="0 0 20 20"><g><g><g transform="translate(-.033 .146)"><circle cx="10" cy="10" r="10" fill="#46bcff" transform="translate(.033 -.146)"/><path fill="#fff" fill-rule="evenodd" d="M15.3 13.357l-1.415-1.118a.7.7 0 0 0-.955.088c-.252.3-.427.482-.472.537-.427.427-1.335-.187-2.281-1.13S8.608 9.9 9.035 9.454c.055-.055.242-.219.537-.472a.688.688 0 0 0 .088-.955L8.558 6.61a.711.711 0 0 0-.823-.21 3.765 3.765 0 0 0-.965.626c-1.02 1.031-.132 3.773 2.106 6.008s4.98 3.126 6.008 2.094a3.494 3.494 0 0 0 .626-.965.679.679 0 0 0-.21-.808z" transform="translate(-.821 -.821)"/></g></g></g></svg>