<svg xmlns="http://www.w3.org/2000/svg" width="19.528" height="19.527" viewBox="0 0 19.528 19.527"><g><g fill-rule="evenodd"><path fill="#25d366" d="M9.76 0a9.759 9.759 0 0 0-8.037 15.3.482.482 0 0 1 .061.42l-.992 3.314 3.249-1.125a.482.482 0 0 1 .42.053A9.763 9.763 0 1 0 9.76 0z"/><path fill="#fff" d="M6.379 4.887l1.778 2.935-.739.731a.482.482 0 0 0-.076.587 9.622 9.622 0 0 0 4.34 4.3.482.482 0 0 0 .542-.1l.783-.778 2.868 1.786a2.71 2.71 0 0 1-1.206 1.387 2.925 2.925 0 0 1-1.982.183 10.673 10.673 0 0 1-4.88-3.054A10.881 10.881 0 0 1 4.839 7.93 2.866 2.866 0 0 1 5.037 6a2.471 2.471 0 0 1 1.342-1.105z" transform="translate(-.615 -.632)"/></g></g></svg>